<svg xmlns:dc="http://purl.org/dc/elements/1.1/" xmlns:cc="http://creativecommons.org/ns#" xmlns:rdf="http://www.w3.org/1999/02/22-rdf-syntax-ns#" xmlns:svg="http://www.w3.org/2000/svg" xmlns="http://www.w3.org/2000/svg" viewBox="0 0 280 280" fill="none"><metadata><rdf:RDF><cc:Work><dc:format>image/svg+xml</dc:format><dc:type rdf:resource="http://purl.org/dc/dcmitype/StillImage"/><dc:title>Avataaars</dc:title><dc:creator><cc:Agent><dc:title>Pablo Stanley</dc:title></cc:Agent></dc:creator><dc:source>https://avataaars.com/</dc:source><cc:license rdf:resource="https://avataaars.com/"/><dc:contributor><cc:Agent><dc:title>Florian Körner</dc:title></cc:Agent></dc:contributor></cc:Work></rdf:RDF></metadata><mask id="avatarsRadiusMask"><rect width="280" height="280" rx="0" ry="0" x="0" y="0" fill="#fff"/></mask><g mask="url(#avatarsRadiusMask)"><g transform="translate(40, 36)"><path d="M100 0C69.072 0 44 25.072 44 56v6.166c-5.675.952-10 5.888-10 11.834v14c0 6.052 4.48 11.058 10.305 11.881 2.067 19.806 14.458 36.541 31.695 44.73V163h-4c-39.764 0-72 32.236-72 72v9h200v-9c0-39.764-32.236-72-72-72h-4v-18.389c17.237-8.189 29.628-24.924 31.695-44.73C161.52 99.058 166 94.052 166 88V74c0-5.946-4.325-10.882-10-11.834V56c0-30.928-25.072-56-56-56z" fill="#EDB98A"/><path d="M76 144.611v8A55.79 55.79 0 00100 158a55.789 55.789 0 0024-5.389v-8A55.789 55.789 0 01100 150a55.79 55.79 0 01-24-5.389z" fill="#000" fill-opacity=".1"/></g><g transform="translate(8, 170)"><path d="M92.68 29.936C58.295 35.366 32 65.138 32 101.052V110h200v-8.948c0-35.914-26.294-65.686-60.681-71.116a23.874 23.874 0 01-7.555 13.603l-29.085 26.229a4 4 0 01-5.358 0l-29.085-26.229a23.871 23.871 0 01-7.555-13.603z" fill="#65C9FF"/></g><g transform="translate(86, 134)"><path fill-rule="evenodd" clip-rule="evenodd" d="M29 15.609C30.41 25.23 41.062 33 54 33c12.968 0 23.646-7.817 25-18.26.101-.4-.225-1.74-2.174-1.74H31.174c-1.79 0-2.304 1.24-2.174 2.609z" fill="#000" fill-opacity=".7"/><path d="M70 13H39a5 5 0 005 5h21a5 5 0 005-5z" fill="#fff"/><path d="M43 23.5l.001.067-.001.063v8.87C43 38.851 48.149 44 54.5 44S66 38.851 66 32.5v-8.87l-.001-.063L66 23.5c0-1.933-2.91-3.5-6.5-3.5-2.01 0-3.808.491-5 1.264-1.192-.773-2.99-1.264-5-1.264-3.59 0-6.5 1.567-6.5 3.5z" fill="#FF4F6D"/></g><g transform="translate(112, 122)"><path fill-rule="evenodd" clip-rule="evenodd" d="M16 8c0 4.418 5.373 8 12 8s12-3.582 12-8" fill="#000" fill-opacity=".16"/></g><g transform="translate(84, 90)"><circle cx="82" cy="22" r="12" fill="#fff"/><circle cx="82" cy="22" r="6" fill="#000" fill-opacity=".7"/><path fill-rule="evenodd" clip-rule="evenodd" d="M16.16 25.447C18.007 21.648 22.164 19 26.998 19c4.816 0 8.961 2.63 10.817 6.407.552 1.122-.233 2.04-1.024 1.36-2.451-2.107-5.932-3.423-9.793-3.423-3.74 0-7.124 1.235-9.56 3.228-.891.728-1.818-.014-1.278-1.125z" fill="#000" fill-opacity=".6"/></g><g transform="translate(84, 82)"><path d="M15.63 17.159c3.915-5.51 14.648-8.598 23.893-6.328a2 2 0 10.954-3.884C29.74 4.31 17.312 7.887 12.37 14.84a2 2 0 103.26 2.318zm80.74 0c-3.915-5.51-14.648-8.598-23.893-6.328a2 2 0 11-.954-3.884c10.737-2.637 23.165.94 28.108 7.894a2 2 0 01-3.26 2.318z" fill="#000" fill-opacity=".6"/></g><g transform="translate(7, 0)"><path d="M67 113c10.859-22.702 34.67-31.597 55.44-39.355 13.32-4.976 25.389-9.485 31.99-16.868 2.233 2.027 4.762 4.058 7.424 6.194C172.063 71.166 184.212 80.917 189 98v.165a12.01 12.01 0 019.815 9.726v-21.85a46.41 46.41 0 00-.158-3.838C203.2 65.198 195.565 44.415 186 35c-9.481-8.818-22.302-12.319-30.953-8.478C143.442 8.982 109.905 13.241 90 28c-13.22 9.808-24.787 25.721-27.845 45.751A46.18 46.18 0 0061 84.046v88.495c-.192 31.515-7.394 82.497-21 90.459 62.358 16.798 71.93-38.145 69-82v-.389c-17.53-8.328-30.048-25.496-31.791-45.744C71.43 134.003 67 129.019 67 123v-10zm90 67.611c17.531-8.328 30.048-25.496 31.791-45.744a12.007 12.007 0 0010.024-9.759v1.363c0 15.828 3.758 31.43 10.963 45.523l26.949 52.707c7.225 14.132 4.676 29.741-3.937 40.761C229.962 228.285 198.901 199 161 199h-4v-18.389z" fill="#B58143"/><path d="M67 112.999c10.86-22.7 34.67-31.595 55.44-39.354 13.319-4.976 25.389-9.484 31.989-16.868 2.234 2.027 4.763 4.058 7.425 6.194 10.184 8.175 22.297 17.898 27.11 34.902-4.577-14.03-15.759-21.215-25.604-27.54-3.211-2.064-6.28-4.036-8.931-6.124-6.601 6.407-18.67 10.32-31.989 14.638C101.67 85.58 77.86 93.299 67 112.999z" fill="#000" fill-opacity=".16"/></g></g></svg>