<svg xmlns:dc="http://purl.org/dc/elements/1.1/" xmlns:cc="http://creativecommons.org/ns#" xmlns:rdf="http://www.w3.org/1999/02/22-rdf-syntax-ns#" xmlns:svg="http://www.w3.org/2000/svg" xmlns="http://www.w3.org/2000/svg" viewBox="0 0 280 280" fill="none"><metadata><rdf:RDF><cc:Work><dc:format>image/svg+xml</dc:format><dc:type rdf:resource="http://purl.org/dc/dcmitype/StillImage"/><dc:title>Avataaars</dc:title><dc:creator><cc:Agent><dc:title>Pablo Stanley</dc:title></cc:Agent></dc:creator><dc:source>https://avataaars.com/</dc:source><cc:license rdf:resource="https://avataaars.com/"/><dc:contributor><cc:Agent><dc:title>Florian Körner</dc:title></cc:Agent></dc:contributor></cc:Work></rdf:RDF></metadata><mask id="avatarsRadiusMask"><rect width="280" height="280" rx="0" ry="0" x="0" y="0" fill="#fff"/></mask><g mask="url(#avatarsRadiusMask)"><g transform="translate(40, 36)"><path d="M100 0C69.072 0 44 25.072 44 56v6.166c-5.675.952-10 5.888-10 11.834v14c0 6.052 4.48 11.058 10.305 11.881 2.067 19.806 14.458 36.541 31.695 44.73V163h-4c-39.764 0-72 32.236-72 72v9h200v-9c0-39.764-32.236-72-72-72h-4v-18.389c17.237-8.189 29.628-24.924 31.695-44.73C161.52 99.058 166 94.052 166 88V74c0-5.946-4.325-10.882-10-11.834V56c0-30.928-25.072-56-56-56z" fill="#614335"/><path d="M76 144.611v8A55.79 55.79 0 00100 158a55.789 55.789 0 0024-5.389v-8A55.789 55.789 0 01100 150a55.79 55.79 0 01-24-5.389z" fill="#000" fill-opacity=".1"/></g><g transform="translate(8, 170)"><path d="M132.5 51.828c18.502 0 33.5-9.617 33.5-21.48 0-.353-.013-.704-.04-1.053 36.976 3.03 66.04 34 66.04 71.757V110H32v-8.948c0-38.1 29.592-69.287 67.045-71.833-.03.374-.045.75-.045 1.129 0 11.863 14.998 21.48 33.5 21.48z" fill="#E6E6E6"/><path d="M132.5 58.761c21.89 0 39.635-12.05 39.635-26.913 0-.603-.029-1.2-.086-1.793a72.056 72.056 0 00-6.089-.76c.027.349.04.7.04 1.053 0 11.863-14.998 21.48-33.5 21.48-18.502 0-33.5-9.617-33.5-21.48 0-.379.015-.755.045-1.128-2.05.139-4.077.364-6.077.672a18.594 18.594 0 00-.103 1.956c0 14.864 17.745 26.913 39.635 26.913z" fill="#000" fill-opacity=".16"/><path d="M100.778 29.122c.072-.378.145-.752.222-1.122-2.959.054-6 1-6 1l-.42.662C59.267 34.276 32 64.48 32 101.052V110h74s-10.7-51.555-5.238-80.793l.023-.085h-.007zM158 110s11-53 5-82c2.959.054 6 1 6 1l.419.662C204.733 34.276 232 64.48 232 101.052V110h-74z" fill="#FFFFB1"/><path fill-rule="evenodd" clip-rule="evenodd" d="M101 28c-6 29 5 82 5 82H90L76 74l6-9-6-6 19-30s3.041-.946 6-1zm62 0c6 29-5 82-5 82h16l14-36-6-9 6-6-19-30s-3.041-.946-6-1z" fill="#000" fill-opacity=".15"/><path d="M183.423 85.77l.871-2.24 6.262-4.697a4 4 0 014.856.043L202 84l-18.577 1.77z" fill="#E6E6E6"/></g><g transform="translate(86, 134)"><path fill-rule="evenodd" clip-rule="evenodd" d="M34.008 38.864C35.128 24.876 38.234 13.008 53.996 13c15.762-.008 18.92 11.943 19.998 25.994.087 1.13-.82 2.006-1.957 2.006-6.687 0-9.367-1.994-18.048-2-8.68-.006-13.232 2-17.896 2-1.144 0-2.197-.737-2.085-2.136z" fill="#000" fill-opacity=".7"/><path d="M67.024 17.573A4.982 4.982 0 0165 18H44a4.977 4.977 0 01-2.672-.773c2.897-2.66 6.95-4.224 12.668-4.227 5.95-.003 10.104 1.698 13.028 4.573z" fill="#fff"/><path d="M69.804 40.922c-2.05-.146-3.757-.477-5.547-.824C61.53 39.57 58.61 39.003 53.99 39c-5.013-.004-8.65.664-11.725 1.229-1.45.266-2.774.509-4.06.648C39.195 35.818 43.652 32 49 32c1.8 0 3.5.433 5 1.2 1.5-.767 3.2-1.2 5-1.2 5.365 0 9.832 3.84 10.804 8.922z" fill="#FF4F6D"/></g><g transform="translate(112, 122)"><path fill-rule="evenodd" clip-rule="evenodd" d="M16 8c0 4.418 5.373 8 12 8s12-3.582 12-8" fill="#000" fill-opacity=".16"/></g><g transform="translate(84, 90)"><path d="M44 20.727c0 4.268-6.268 7.727-14 7.727s-14-3.46-14-7.727S22.268 13 30 13s14 3.46 14 7.727zm52 0c0 4.268-6.268 7.727-14 7.727s-14-3.46-14-7.727S74.268 13 82 13s14 3.46 14 7.727z" fill="#fff"/><path d="M32.82 28.297c-.91.103-1.854.157-2.82.157-.966 0-1.91-.054-2.82-.157a6 6 0 115.64 0zm52 0c-.91.103-1.854.157-2.82.157-.966 0-1.91-.054-2.82-.157a6 6 0 115.64 0z" fill="#000" fill-opacity=".7"/></g><g transform="translate(84, 82)"><path d="M15.611 15.184c4.24-5.768 6.878-5.483 13.313-.627l.67.507C34.422 18.726 36.708 20 40 20a2 2 0 100-4c-2.066 0-3.901-1.022-7.989-4.123l-.678-.514c-3.76-2.836-5.959-4.076-8.695-4.37-3.684-.399-7.058 1.48-10.25 5.822a2 2 0 103.223 2.37zm80.777 0c-4.24-5.768-6.877-5.483-13.312-.627l-.67.507C77.578 18.726 75.292 20 72 20a2 2 0 110-4c2.066 0 3.901-1.022 7.989-4.123l.678-.514c3.76-2.836 5.959-4.076 8.695-4.37 3.684-.399 7.058 1.48 10.25 5.822a2 2 0 11-3.224 2.37z" fill="#000" fill-opacity=".6"/></g><g transform="translate(7, 0)"><path d="M175.831 55.922l-.03.018c.757.878 1.486 1.78 2.186 2.706C184.907 67.963 189 79.502 189 92v5.5c0-15.772-6.7-29.98-17.409-39.931-11.584 3.77-49.581 14.274-77.63.42C83.513 67.92 77 81.95 77 97.5V92a55.75 55.75 0 0111.013-33.354c.71-.94 1.45-1.855 2.22-2.746a5.163 5.163 0 01-.028-.022C100.478 43.721 115.838 36 133 36c17.183 0 32.559 7.74 42.831 19.922z" fill="#000" fill-opacity=".16"/><path d="M92.537 53.286C82.913 63.342 77 76.98 77 92v6.166a11.968 11.968 0 00-6.485 3.349l.702-17.372c.56-13.884 7.234-26.125 17.363-34.173-2.207-3.843-1.455-10.333 7.802-13.093 5.065-1.51 7.572-5.087 10.234-8.884 3.503-4.995 7.272-10.371 17.487-11.92 9.866-1.494 13.227-.88 17.043-.184 3.138.572 6.584 1.201 14.205.762 9.852-.57 16.862-3.993 21.424-6.221 3.262-1.593 5.272-2.575 6.176-1.467 15.42 18.903 6.968 33.79-6.198 41.953C186.692 59.354 193 71.94 193 86v13.605a11.921 11.921 0 00-4-1.44V92c0-15.256-6.101-29.087-15.995-39.187-7.77 2.744-50.391 16.543-80.468.473zM223.61 226.052c3.059 5.601 4.049 11.122 3.499 16.377C216.051 216.878 190.613 199 161 199h-4v-18.389c17.531-8.328 30.048-25.496 31.791-45.744a11.918 11.918 0 004.209-1.472v20.714c0 20.759 11.475 39.779 22.146 57.465 2.972 4.926 5.882 9.749 8.464 14.478zM68.697 146.504l.661-16.359a11.993 11.993 0 007.85 4.722c1.744 20.248 14.261 37.416 31.792 45.744V199h-4c-11.197 0-21.798 2.556-31.25 7.116-2.986-18.284-4.297-38.673-5.053-59.612z" fill="#E8E1E1"/><path fill-rule="evenodd" clip-rule="evenodd" d="M90.878 52.361c33.225 19.3 83.367 0 83.367 0 14.53-7.772 25.086-23.319 8.706-43.398-2.168-2.658-10.706 6.713-27.6 7.688-16.893.974-13.271-3.301-31.248-.577s-15.991 17.304-27.721 20.803c-11.73 3.498-9.804 12.986-5.504 15.484z" fill="#fff" fill-opacity=".2"/></g><g transform="translate(69, 85)"><path fill-rule="evenodd" clip-rule="evenodd" d="M111.712 10.488c4.666.16 8 .887 10.548 4.518 3.012.156 6.253.374 8.981 1.633 3.385 1.562 3.908 5.1-.359 5.587-1.859.213-3.72-.12-5.552-.448l-.186-.033a9.348 9.348 0 00-.339-.054c1.104 9.461-6.207 20.869-14.228 24.346-10.977 4.76-23.24-.508-29.043-10.033-2.626-4.31-4.142-10.515-4.466-15.86-.42-.204-.83-.441-1.23-.674-.38-.22-.754-.437-1.119-.615-2.007-.978-5.338-1.098-7.506 0-.338.172-.685.374-1.039.582-.426.25-.864.505-1.313.722-.325 5.343-1.841 11.54-4.465 15.847-5.804 9.526-18.067 14.793-29.044 10.033-8.021-3.477-15.333-14.886-14.227-24.348a9.563 9.563 0 00-.338.054l-.185.033c-1.833.328-3.694.66-5.553.448-4.267-.487-3.744-4.025-.359-5.587 2.728-1.259 5.969-1.477 8.982-1.633 2.547-3.63 5.881-4.355 10.546-4.515l23.291-.457c5.189-.14 9.718-.01 11.033 4.606 2.089-.814 4.505-1.255 6.35-1.255 1.858 0 4.348.447 6.49 1.274 1.306-4.638 5.842-4.767 11.039-4.627l23.291.456zm-24.031 6.785c-2.372.022-3.493.416-3.897 2.89-.41 2.505-.012 5.322.46 7.79.721 3.767 1.92 7.459 4.708 10.213 1.47 1.45 3.261 2.606 5.167 3.396 1.012.419 2.081.722 3.15.951.114.025.544.09.963.153.626.094 1.228.185.711.131l-.095-.01-.065-.007a47.075 47.075 0 01.16.017c3.724.397 7.719.312 10.814-2.047 3.533-2.692 5.952-6.952 7.016-11.196.623-2.483 1.93-8.422-.459-10.407-2.737-2.275-28.633-1.874-28.633-1.874zm-33.432.002c2.372.023 3.493.417 3.897 2.89.41 2.506.011 5.322-.46 7.79-.721 3.768-1.92 7.46-4.708 10.214-1.47 1.45-3.261 2.606-5.167 3.395-1.012.42-2.081.722-3.15.952-.114.024-.544.09-.962.152-.64.097-1.255.19-.678.128-3.734.4-7.743.323-10.849-2.044-3.532-2.692-5.952-6.952-7.015-11.196-.623-2.483-1.93-8.422.459-10.407 2.737-2.274 28.633-1.874 28.633-1.874zM43.318 42.764z" fill="#000" fill-opacity=".1"/><path fill-rule="evenodd" clip-rule="evenodd" d="M111.712 8.488c4.666.16 8 .887 10.548 4.518 3.012.156 6.253.374 8.981 1.633 3.385 1.562 3.908 5.1-.359 5.587-1.859.213-3.72-.12-5.552-.448l-.186-.033a9.348 9.348 0 00-.339-.054c1.104 9.461-6.207 20.869-14.228 24.346-10.977 4.76-23.24-.508-29.043-10.033-2.626-4.31-4.142-10.515-4.466-15.86-.42-.204-.83-.441-1.23-.674-.38-.22-.754-.437-1.119-.615-2.007-.978-5.338-1.098-7.506 0-.338.172-.685.374-1.039.582-.426.25-.864.505-1.313.722-.325 5.343-1.841 11.54-4.465 15.847-5.804 9.526-18.067 14.793-29.044 10.033-8.021-3.477-15.333-14.886-14.227-24.348a9.563 9.563 0 00-.338.054l-.185.033c-1.833.328-3.694.66-5.553.448-4.267-.487-3.744-4.025-.359-5.587 2.728-1.259 5.969-1.477 8.982-1.633 2.547-3.63 5.881-4.355 10.546-4.515l23.291-.457c5.189-.14 9.718-.01 11.033 4.606 2.089-.814 4.505-1.255 6.35-1.255 1.858 0 4.348.447 6.49 1.274 1.306-4.638 5.842-4.767 11.039-4.627l23.291.456zm-24.031 6.785c-2.372.022-3.493.416-3.897 2.89-.41 2.505-.012 5.322.46 7.79.721 3.767 1.92 7.459 4.708 10.213 1.47 1.45 3.261 2.606 5.167 3.396 1.012.419 2.081.722 3.15.951.114.025.544.09.963.153.626.094 1.228.185.711.131l-.095-.01-.065-.007a47.075 47.075 0 01.16.017c3.724.397 7.719.312 10.814-2.047 3.533-2.692 5.952-6.952 7.016-11.196.623-2.483 1.93-8.422-.459-10.407-2.737-2.275-28.633-1.874-28.633-1.874zm-33.432.002c2.372.022 3.493.417 3.897 2.89.41 2.506.011 5.322-.46 7.79-.721 3.768-1.92 7.46-4.708 10.214-1.47 1.45-3.261 2.606-5.167 3.395-1.012.42-2.081.722-3.15.952-.114.024-.544.09-.962.152-.64.097-1.255.19-.678.128-3.734.4-7.743.323-10.849-2.044-3.532-2.692-5.952-6.952-7.015-11.196-.623-2.483-1.93-8.422.459-10.407 2.737-2.275 28.633-1.874 28.633-1.874zM43.318 40.764z" fill="#65C9FF"/></g></g></svg>